<?xml version="1.0" standalone="no"?>
<!DOCTYPE svg PUBLIC "-//W3C//DTD SVG 20010904//EN"
 "http://www.w3.org/TR/2001/REC-SVG-20010904/DTD/svg10.dtd">
<svg version="1.0" xmlns="http://www.w3.org/2000/svg"
 width="512.000000pt" height="512.000000pt" viewBox="0 0 512.000000 512.000000"
 preserveAspectRatio="xMidYMid meet">

<g transform="translate(0.000000,512.000000) scale(0.100000,-0.100000)"
fill="#000000" stroke="none">
<path d="M2235 4879 c-16 -5 -165 -119 -329 -254 -165 -135 -343 -282 -398
-326 l-98 -80 0 150 c0 146 1 151 20 151 33 0 75 26 88 55 16 34 16 216 0 250
-24 54 -33 55 -467 55 l-401 0 -32 -29 -33 -29 0 -122 0 -122 33 -29 c18 -16
43 -29 57 -29 l25 0 0 -442 -1 -443 -214 -174 c-227 -184 -245 -206 -245 -283
0 -79 53 -140 137 -158 l53 -11 0 -1241 0 -1241 -40 -44 c-42 -44 -80 -119
-80 -154 0 -11 -8 -22 -18 -25 -50 -16 -61 -33 -37 -58 15 -15 216 -16 2365
-16 2122 0 2350 2 2364 16 9 8 16 19 16 23 0 12 -22 28 -44 32 -12 3 -24 19
-33 44 -39 119 -189 197 -298 155 -21 -8 -32 -5 -66 20 -64 46 -130 64 -216
57 l-73 -5 0 303 0 303 278 4 c246 3 281 5 312 22 49 26 88 64 113 111 22 39
22 49 22 455 0 406 0 416 -22 455 -27 51 -68 90 -115 109 -31 13 -92 16 -373
16 l-335 0 0 330 0 330 41 6 c57 10 100 42 128 97 29 58 23 121 -15 166 -39
47 -1910 1574 -1952 1593 -41 19 -71 21 -117 7z m-801 -75 c13 -5 16 -24 16
-105 l0 -99 -392 2 -393 3 0 95 c0 92 1 94 25 101 31 9 722 11 744 3z m933
-31 c26 -20 317 -257 647 -527 329 -270 732 -600 895 -734 163 -133 308 -256
324 -272 37 -41 36 -83 -2 -121 l-29 -29 -1906 0 c-1375 0 -1912 3 -1929 11
-23 10 -38 32 -50 69 -11 36 27 77 229 242 116 95 547 449 958 786 839 687
774 643 863 575z m-1037 -436 l0 -182 -256 -209 c-140 -115 -266 -218 -280
-228 l-24 -19 0 410 0 411 280 0 280 0 0 -183z m2740 -1651 l0 -325 -372 -3
c-351 -3 -375 -4 -408 -23 -33 -19 -59 -20 -387 -25 -337 -5 -353 -6 -380 -26
-15 -11 -38 -36 -51 -54 l-22 -33 0 -943 0 -944 -760 0 -760 0 -6 28 c-23 93
-115 197 -201 226 -52 18 -158 21 -197 6 l-26 -10 0 1225 0 1225 1785 0 1785
0 0 -324z m766 -422 c19 -9 44 -31 57 -48 22 -31 22 -36 25 -430 3 -387 2
-400 -18 -442 -16 -31 -33 -48 -64 -63 -42 -21 -56 -21 -761 -21 -705 0 -719
0 -761 21 -31 15 -48 32 -63 63 -20 40 -21 59 -21 424 0 395 2 416 43 461 47
51 30 50 805 51 648 0 728 -2 758 -16z m-956 -1519 l0 -435 -85 0 -85 0 0 435
0 435 85 0 85 0 0 -435z m314 343 c3 -50 6 -196 6 -324 l0 -233 -27 -21 c-41
-32 -89 -104 -103 -155 l-13 -45 -53 0 -54 0 0 343 c0 189 3 385 6 435 l7 92
112 0 112 0 7 -92z m-3510 -592 c65 -20 112 -58 141 -116 14 -27 25 -54 25
-60 0 -6 -80 -10 -236 -10 l-235 0 6 23 c15 48 58 109 94 132 71 44 130 53
205 31z m3758 0 c21 -8 50 -21 64 -31 l26 -17 -20 -21 c-24 -27 -52 -81 -52
-102 0 -13 -22 -15 -160 -15 -183 0 -183 0 -131 82 60 95 175 139 273 104z
m293 -67 c31 -8 56 -24 80 -50 60 -67 57 -69 -125 -69 -88 0 -160 4 -160 8 0
5 13 27 29 49 27 37 56 55 106 66 11 3 21 5 23 6 2 0 23 -4 47 -10z"/>
<path d="M2173 4295 c-214 -60 -354 -241 -354 -456 -1 -133 46 -245 140 -339
228 -228 616 -160 754 132 53 113 60 256 17 371 -46 124 -173 245 -293 282
-75 24 -201 28 -264 10z m77 -245 l0 -180 -180 0 -180 0 6 28 c27 122 94 224
183 277 35 20 127 55 149 55 l22 0 0 -180z m217 139 c103 -50 191 -166 209
-277 l7 -42 -179 2 -179 3 -3 179 -2 179 42 -7 c24 -3 71 -20 105 -37z m-217
-569 l0 -179 -32 5 c-52 9 -150 58 -192 94 -64 57 -111 139 -130 233 l-6 27
180 0 180 0 0 -180z m426 139 c-15 -97 -96 -209 -190 -264 -38 -22 -146 -59
-152 -52 -1 1 -5 82 -9 180 l-7 177 182 0 183 0 -7 -41z"/>
<path d="M855 2351 c-40 -10 -86 -35 -107 -58 -48 -53 -48 -48 -48 -768 0
-651 1 -677 20 -714 24 -48 70 -87 118 -101 51 -14 1064 -14 1115 1 44 12 101
59 125 103 15 28 17 92 20 680 2 465 0 665 -9 705 -16 77 -71 134 -147 150
-60 12 -1036 14 -1087 2z m505 -426 l0 -355 -295 0 -296 0 3 321 3 321 37 34
38 34 255 0 255 0 0 -355z m600 340 c58 -30 60 -44 60 -385 l0 -310 -295 0
-295 0 0 355 0 355 250 0 c205 0 256 -3 280 -15z m-600 -1130 l0 -355 -250 0
c-280 0 -295 3 -324 64 -14 29 -16 78 -16 340 l0 306 295 0 295 0 0 -355z
m660 45 c0 -256 -3 -316 -15 -340 -31 -59 -35 -60 -317 -60 l-258 0 0 355 0
355 295 0 295 0 0 -310z"/>
<path d="M3350 1770 l0 -210 35 0 35 0 0 85 0 85 73 0 c39 0 78 -4 86 -9 8 -5
16 -32 18 -62 7 -97 8 -99 54 -99 38 0 41 2 34 23 -4 12 -11 49 -15 82 -7 66
-17 95 -31 95 -5 0 1 14 13 31 41 54 21 147 -35 168 -12 4 -77 11 -144 14
l-123 6 0 -209z m240 125 c17 -20 16 -63 -1 -81 -15 -14 -47 -19 -121 -16
l-48 2 0 55 0 55 79 0 c58 0 82 -4 91 -15z"/>
<path d="M3740 1765 l0 -205 155 0 155 0 0 35 0 35 -120 0 -120 0 0 55 0 54
108 3 107 3 3 33 3 32 -110 0 -111 0 0 50 0 50 120 0 120 0 0 30 0 30 -155 0
-155 0 0 -205z"/>
<path d="M4102 1768 l3 -203 32 -3 32 -3 3 150 3 149 94 -149 c90 -144 94
-149 127 -149 l34 0 0 205 0 205 -30 0 -30 0 0 -140 c0 -77 -3 -140 -7 -140
-5 0 -46 63 -93 140 l-85 140 -43 0 -42 0 2 -202z"/>
<path d="M4470 1940 l0 -30 65 0 65 0 0 -175 0 -175 35 0 35 0 0 175 0 175 65
0 65 0 0 30 0 30 -165 0 -165 0 0 -30z"/>
<path d="M4562 4724 c-12 -8 -22 -23 -22 -33 0 -36 -62 -140 -110 -185 -49
-46 -138 -96 -172 -96 -9 0 -24 -10 -32 -22 -22 -32 -2 -57 60 -78 68 -22 114
-51 164 -106 41 -44 90 -134 90 -165 0 -9 9 -24 19 -33 31 -28 57 -12 76 47
24 74 57 127 108 174 50 47 79 63 154 87 59 20 75 46 48 76 -9 10 -31 22 -49
26 -48 10 -104 42 -152 86 -54 49 -78 88 -104 164 -26 75 -40 85 -78 58z m52
-178 c33 -57 108 -132 157 -157 22 -10 39 -21 39 -24 0 -2 -15 -12 -32 -21
-58 -30 -112 -81 -153 -143 l-39 -61 -27 42 c-34 56 -102 123 -156 155 -24 14
-43 27 -43 29 0 2 18 13 39 24 22 11 63 43 91 70 27 28 59 69 70 91 11 21 22
39 24 39 2 0 16 -20 30 -44z"/>
<path d="M2822 4708 c-20 -20 -14 -34 29 -72 47 -44 82 -46 87 -6 2 20 -6 33
-37 58 -43 34 -60 39 -79 20z"/>
<path d="M3008 4569 c-42 -23 -19 -47 283 -294 312 -255 344 -275 344 -213 0
22 -41 60 -282 256 -328 268 -322 264 -345 251z"/>
<path d="M239 4072 c-155 -81 -151 -296 8 -376 45 -22 134 -21 182 3 169 87
152 330 -28 390 -55 18 -105 13 -162 -17z m132 -52 c57 -16 92 -60 96 -122 5
-64 -18 -106 -70 -131 -44 -21 -80 -21 -123 -1 -106 51 -93 220 21 253 40 12
35 12 76 1z"/>
<path d="M242 2048 c-14 -14 -16 -106 -3 -126 4 -8 19 -12 32 -10 22 3 24 8
27 67 2 45 -1 67 -10 72 -18 12 -32 11 -46 -3z"/>
<path d="M242 1808 c-9 -9 -12 -105 -12 -399 0 -411 1 -416 47 -407 17 3 18
26 18 408 0 398 0 405 -20 408 -11 1 -26 -3 -33 -10z"/>
</g>
</svg>
